<svg width="243" height="64" viewBox="0 0 243 64" fill="none" xmlns="http://www.w3.org/2000/svg">
<g clip-path="url(#clip0_325_577)">
<path d="M4.06836 59.4482C8.41953 58.2252 12.7707 57.0022 19.2105 52.0108C25.6504 47.0194 34.1789 38.2597 40.8217 30.0293C47.4644 21.799 52.2213 14.098 56.9782 6.39701L55.0075 6.26161C55.0276 6.09648 55.0477 5.93135 55.4569 5.78899C55.8662 5.64662 56.6647 5.52704 57.4632 5.40745C57.785 4.87294 58.1068 4.33844 58.3933 4.14189C58.4817 4.0812 58.5668 4.05273 58.6417 4.05273C58.8093 4.05273 58.9259 4.19542 58.9148 4.43868C58.8987 4.79062 58.6155 5.35308 58.3323 5.91555C58.7289 6.55778 59.1254 7.20001 59.2504 7.58115C59.3754 7.96229 59.2288 8.08234 59.0823 8.2024L57.841 6.75431C54.0588 14.9964 50.2765 23.2385 44.2771 31.8272C38.2776 40.4159 30.061 49.3512 22.99 54.0125C15.919 58.6738 9.99367 59.061 4.06836 59.4482Z" fill="#034CAD"/>
<path d="M34.6414 19.7414V19.7416V19.7418V19.742V19.7414C34.5396 19.7767 34.4375 19.8131 34.3352 19.8505L23.0943 23.9584L23.4489 24.1809C24.563 40.919 23.9515 43.7306 23.9515 43.7306C23.441 46.0779 22.2792 48.0154 21.5064 49.2753C20.7336 50.5353 16.5732 54.195 16.5732 54.195L22.0316 53.2334L25.3277 50.6178L28.6642 47.7052L29.9324 46.4918L30.5475 28.2186L34.1978 27.1384C34.2126 27.134 34.2274 27.1297 34.242 27.1257C34.6933 27.0007 35.5628 26.7463 35.9263 26.7708C36.2897 26.7953 36.2989 26.9127 36.3485 27.3796L37.0747 39.1531L38.6216 37.2669L41.8109 33.2776L44.909 29.0275L45.8346 27.6286L45.7697 25.3743C45.7233 23.762 45.3525 22.4578 44.6679 21.4619C43.9977 20.487 43.1256 19.7749 42.0313 19.3547C40.9848 18.953 39.7762 18.8012 38.4262 18.9006C37.2186 18.9896 35.9507 19.287 34.6414 19.7414Z" fill="#034CAD"/>
<path d="M45.9913 33.0654L44.9239 34.5037C44.9039 34.5308 44.883 34.5575 44.8615 34.5839L41.4503 38.7654C41.4296 38.7908 41.4082 38.8159 41.3862 38.8405L37.8849 42.7557C37.8637 42.7794 37.8419 42.8027 37.8195 42.8256C38.1868 45.1246 37.6329 47.0685 36.0838 48.583C35.1574 49.4887 34.1657 50.0517 33.1949 50.3893C32.7809 50.5334 32.5025 50.6372 32.3443 50.6584C31.6417 50.7526 31.1541 50.799 30.8815 50.799C30.726 50.799 29.9007 50.4613 29.8852 50.4308C28.9402 51.1649 26.9858 52.9205 26.9663 52.9404C25.3985 54.5455 26.0576 57.4178 26.975 57.4341C26.9781 57.4342 26.9812 57.4342 26.9842 57.4342C26.9851 57.4342 26.9859 57.4342 26.9867 57.4342C35.264 57.3902 36.8412 57.1207 38.3668 56.636C39.9178 56.1432 41.2998 55.3978 42.5106 54.3753C43.7159 53.3576 44.69 52.0877 45.3841 50.5417C46.0793 48.9935 46.3976 47.1887 46.339 45.1528L45.9913 33.0654Z" fill="#FE830C"/>
</g>
<path d="M83.7804 55.2172H72V50.4738H75.7635V31.3223H72V26.579H83.7804C87.6255 26.579 90.5428 27.5588 92.5322 29.5185C94.5513 31.4634 95.5608 34.3584 95.5608 38.2035V43.5926C95.5608 47.4378 94.5513 50.3476 92.5322 52.3222C90.5428 54.2522 87.6255 55.2172 83.7804 55.2172ZM81.1749 31.4782V50.3179H83.8695C86.0519 50.3179 87.6478 49.7389 88.6573 48.5809C89.6669 47.4378 90.1717 45.8344 90.1717 43.7708V38.0254C90.1717 35.932 89.6669 34.3287 88.6573 33.2152C87.6478 32.0572 86.0519 31.4782 83.8695 31.4782H81.1749ZM123.197 55.2172H104.535V26.579H122.952V31.4782H109.924V38.3149H121.794V43.2363H109.924V50.3179H123.197V55.2172ZM141.591 55.7739C139.394 55.7739 137.449 55.3805 135.757 54.5936C134.064 53.8068 132.735 52.671 131.77 51.1864C130.82 49.7167 130.345 47.95 130.345 45.8864V44.7284H135.668V45.8864C135.668 47.5937 136.202 48.8853 137.271 49.7612C138.325 50.6074 139.765 51.0306 141.591 51.0306C143.447 51.0306 144.828 50.6668 145.733 49.9394C146.654 49.1971 147.114 48.2543 147.114 47.1112C147.114 45.9086 146.609 45.0476 145.6 44.528C144.62 43.9786 143.202 43.5036 141.346 43.1027L140.411 42.9023C138.451 42.4569 136.759 41.9076 135.334 41.2544C133.953 40.5715 132.876 39.6881 132.104 38.6044C131.377 37.5057 131.013 36.0879 131.013 34.3509C131.013 31.7232 131.926 29.6744 133.752 28.2047C135.608 26.7349 138.058 26 141.101 26C143.15 26 144.969 26.3563 146.557 27.0689C148.161 27.737 149.415 28.7688 150.321 30.1643C151.241 31.5302 151.701 33.2523 151.701 35.3308V36.5556H146.379V35.3308C146.379 33.6829 145.904 32.51 144.954 31.8123C144.033 31.0996 142.749 30.7433 141.101 30.7433C139.468 30.7433 138.258 31.0551 137.471 31.6786C136.699 32.2873 136.313 33.1187 136.313 34.1728C136.313 35.2417 136.722 36.0582 137.538 36.6224C138.37 37.2014 139.639 37.6839 141.346 38.0699L142.304 38.2703C144.338 38.7009 146.104 39.2576 147.604 39.9405C149.133 40.6234 150.321 41.5216 151.167 42.6351C152.013 43.7634 152.436 45.196 152.436 46.933C152.436 48.6849 151.991 50.2289 151.1 51.565C150.224 52.8715 148.97 53.9107 147.337 54.6827C145.718 55.4102 143.803 55.7739 141.591 55.7739ZM172.033 55.7739C168.44 55.7739 165.575 54.794 163.437 52.8343C161.314 50.845 160.253 48.0094 160.253 44.3275V37.4464C160.253 33.7645 161.314 30.9438 163.437 28.9841C165.575 26.9947 168.44 26 172.033 26C175.641 26 178.506 26.9947 180.629 28.9841C182.752 30.9438 183.814 33.7645 183.814 37.4464V44.3275C183.814 48.0094 182.752 50.845 180.629 52.8343C178.506 54.794 175.641 55.7739 172.033 55.7739ZM172.033 50.9415C174.052 50.9415 175.626 50.355 176.754 49.1822C177.868 48.0094 178.424 46.4431 178.424 44.4834V37.2905C178.424 35.3308 177.868 33.7645 176.754 32.5917C175.626 31.4188 174.052 30.8324 172.033 30.8324C170.044 30.8324 168.477 31.4188 167.334 32.5917C166.221 33.7645 165.664 35.3308 165.664 37.2905V44.4834C165.664 46.4431 166.221 48.0094 167.334 49.1822C168.477 50.355 170.044 50.9415 172.033 50.9415ZM211.516 55.2172H193.033V26.5567H198.422V50.2957H211.516V55.2172ZM223.274 55.2172H217.707L225.234 26.579H234.632L242.159 55.2172H236.591L235.055 48.915H224.811L223.274 55.2172ZM229.577 29.9862L226.103 43.9267H233.786L230.312 29.9862H229.577Z" fill="white"/>
<defs>
<clipPath id="clip0_325_577">
<rect width="68.5714" height="64" fill="white"/>
</clipPath>
</defs>
</svg>
