<svg width="108" height="101" viewBox="0 0 108 101" fill="none" xmlns="http://www.w3.org/2000/svg">
<g clip-path="url(#clip0_345_415)">
<path d="M6.40625 93.7283C13.2593 91.8021 20.1124 89.8759 30.2552 82.0145C40.3979 74.153 53.8304 60.3564 64.2927 47.3936C74.755 34.4308 82.2471 22.3017 89.7393 10.1727L86.6354 9.95945C86.6671 9.69937 86.6987 9.43929 87.3433 9.21507C87.9879 8.99085 89.2455 8.8025 90.5031 8.61415C91.0099 7.7723 91.5168 6.93045 91.968 6.62089C92.1073 6.52531 92.2413 6.48047 92.3592 6.48047C92.6232 6.48047 92.8068 6.70519 92.7893 7.08834C92.7641 7.64263 92.318 8.52852 91.872 9.4144C92.4966 10.4259 93.1211 11.4374 93.318 12.0377C93.5148 12.638 93.284 12.8271 93.0531 13.0162L91.0981 10.7355C85.1411 23.7168 79.1841 36.6981 69.735 50.2253C60.2859 63.7525 47.3446 77.8256 36.2078 85.1671C25.071 92.5086 15.7386 93.1185 6.40625 93.7283Z" fill="#034CAD"/>
<path d="M54.559 31.191V31.1913V31.1916V31.192V31.191C54.3986 31.2466 54.2378 31.304 54.0766 31.3629L36.3722 37.8328L36.9308 38.1833C38.6855 64.5458 37.7223 68.9741 37.7223 68.9741C36.9182 72.6711 35.0884 75.7226 33.8712 77.707C32.6541 79.6914 26.1016 85.4555 26.1016 85.4555L34.6984 83.9409L39.8898 79.8214L45.1447 75.234L47.1422 73.3229L48.111 44.5426L53.8602 42.8413C53.8836 42.8343 53.9068 42.8277 53.9299 42.8213C54.6407 42.6244 56.0101 42.2237 56.5826 42.2623C57.1551 42.3009 57.1695 42.4859 57.2475 43.2212L58.3914 61.7645L60.8278 58.7936L65.8509 52.5105L70.7304 45.8167L72.1881 43.6133L72.086 40.0629C72.0129 37.5235 71.4289 35.4694 70.3506 33.9009C69.2951 32.3654 67.9215 31.2438 66.1979 30.5821C64.5497 29.9493 62.6463 29.7102 60.5199 29.8669C58.6181 30.007 56.6211 30.4753 54.559 31.191Z" fill="#034CAD"/>
<path d="M72.4353 52.1758L70.7542 54.4411C70.7226 54.4837 70.6898 54.5258 70.6558 54.5674L65.2833 61.1533C65.2506 61.1933 65.217 61.2327 65.1823 61.2715L59.6677 67.438C59.6343 67.4753 59.5999 67.512 59.5647 67.548C60.1432 71.1689 59.2708 74.2306 56.831 76.616C55.3719 78.0425 53.8099 78.9291 52.281 79.4609C51.629 79.6878 51.1904 79.8514 50.9413 79.8848C49.8347 80.033 49.0667 80.1061 48.6374 80.1061C48.3925 80.1061 47.0926 79.5743 47.0682 79.5263C45.5798 80.6824 42.5016 83.4475 42.4709 83.4789C40.0017 86.0069 41.0398 90.5308 42.4846 90.5565C42.4895 90.5566 42.4944 90.5566 42.4992 90.5566C42.5005 90.5566 42.5018 90.5566 42.5031 90.5566C55.5398 90.4872 58.0238 90.0628 60.4267 89.2994C62.8696 88.5233 65.0462 87.3492 66.9533 85.7389C68.8515 84.136 70.3858 82.1358 71.479 79.7009C72.5739 77.2624 73.0752 74.4199 72.983 71.2134L72.4353 52.1758Z" fill="#FE830C"/>
</g>
<defs>
<clipPath id="clip0_345_415">
<rect width="108" height="100.8" fill="white" transform="translate(0 0.101562)"/>
</clipPath>
</defs>
</svg>
