<svg width="1077" height="189" viewBox="0 0 1077 189" fill="none" xmlns="http://www.w3.org/2000/svg">
<path opacity="0.3" d="M74.5627 184.927H0V154.904H23.8206V33.6871H0V3.66471H74.5627C98.9 3.66471 117.364 9.86654 129.956 22.2701C142.736 34.5798 149.125 52.9033 149.125 77.2407V111.351C149.125 135.688 142.736 154.105 129.956 166.603C117.364 178.819 98.9 184.927 74.5627 184.927ZM58.0715 34.6737V153.918H75.1264C88.9396 153.918 99.0409 150.253 105.431 142.923C111.82 135.688 115.015 125.54 115.015 112.478V76.1131C115.015 62.8638 111.82 52.7154 105.431 45.6679C99.0409 38.3385 88.9396 34.6737 75.1264 34.6737H58.0715ZM324.044 184.927H205.928V3.66471H322.494V34.6737H240.038V77.9454H315.165V109.095H240.038V153.918H324.044V184.927ZM440.469 188.45C426.562 188.45 414.252 185.96 403.54 180.98C392.828 176 384.418 168.811 378.31 159.415C372.296 150.112 369.289 138.93 369.289 125.868V118.539H402.976V125.868C402.976 136.675 406.359 144.85 413.125 150.394C419.797 155.75 428.911 158.428 440.469 158.428C452.215 158.428 460.954 156.126 466.686 151.521C472.512 146.823 475.425 140.856 475.425 133.621C475.425 126.009 472.23 120.559 465.84 117.271C459.638 113.794 450.665 110.787 438.919 108.25L432.999 106.981C420.595 104.162 409.883 100.685 400.862 96.5508C392.123 92.2284 385.311 86.6373 380.424 79.7778C375.82 72.8242 373.518 63.8504 373.518 52.8563C373.518 36.2242 379.297 23.2568 390.855 13.9541C402.601 4.65139 418.105 0 437.368 0C450.336 0 461.847 2.25523 471.901 6.76563C482.049 10.9941 489.99 17.5248 495.722 26.3577C501.548 35.0026 504.461 45.9028 504.461 59.0581V66.8104H470.773V59.0581C470.773 48.6278 467.767 41.2044 461.753 36.788C455.927 32.2776 447.799 30.0224 437.368 30.0224C427.032 30.0224 419.374 31.9957 414.393 35.9423C409.507 39.7949 407.064 45.0571 407.064 51.7287C407.064 58.4943 409.648 63.6625 414.816 67.2332C420.078 70.8979 428.113 73.9519 438.919 76.395L444.98 77.6635C457.853 80.3886 469.035 83.9123 478.526 88.2348C488.204 92.5573 495.722 98.2422 501.078 105.29C506.434 112.431 509.112 121.499 509.112 132.493C509.112 143.581 506.293 153.354 500.655 161.811C495.111 170.08 487.171 176.658 476.834 181.544C466.592 186.148 454.47 188.45 440.469 188.45ZM633.148 188.45C610.408 188.45 592.273 182.249 578.741 169.845C565.304 157.253 558.585 139.306 558.585 116.002V72.4484C558.585 49.1446 565.304 31.291 578.741 18.8874C592.273 6.29581 610.408 0 633.148 0C655.982 0 674.117 6.29581 687.555 18.8874C700.992 31.291 707.711 49.1446 707.711 72.4484V116.002C707.711 139.306 700.992 157.253 687.555 169.845C674.117 182.249 655.982 188.45 633.148 188.45ZM633.148 157.864C645.927 157.864 655.888 154.152 663.029 146.729C670.077 139.306 673.601 129.392 673.601 116.989V71.4617C673.601 59.0581 670.077 49.1446 663.029 41.7212C655.888 34.2979 645.927 30.5862 633.148 30.5862C620.556 30.5862 610.643 34.2979 603.408 41.7212C596.36 49.1446 592.836 59.0581 592.836 71.4617V116.989C592.836 129.392 596.36 139.306 603.408 146.729C610.643 154.152 620.556 157.864 633.148 157.864ZM883.053 184.927H766.064V3.52375H800.174V153.777H883.053V184.927ZM957.474 184.927H922.237L969.878 3.66471H1029.36L1077 184.927H1041.76L1032.04 145.038H967.2L957.474 184.927ZM997.363 25.2301L975.375 113.465H1024L1002.01 25.2301H997.363Z" fill="white"/>
</svg>
