<svg width="107" height="91" viewBox="0 0 107 91" fill="none" xmlns="http://www.w3.org/2000/svg">
<path d="M55.1756 90.8194C83.4948 90.8194 106.452 81.8135 106.452 70.7042C106.452 59.5948 83.4948 50.5889 55.1756 50.5889C26.8565 50.5889 3.89924 59.5948 3.89924 70.7042C3.89924 81.8135 26.8565 90.8194 55.1756 90.8194Z" fill="#F9FAFB"/>
<path d="M89.6381 62.0583L91.734 65.4014L82.1465 67.0722L80.0506 63.7292L89.6381 62.0583Z" fill="#D0D5DD"/>
<path d="M82.1465 67.3611C82.0479 67.3611 81.9548 67.3111 81.902 67.225L79.8062 63.8819C79.7548 63.8 79.7478 63.6986 79.7867 63.6111C79.8256 63.5236 79.9062 63.4611 80.0006 63.4444L89.5881 61.7736C89.7048 61.7528 89.8201 61.8056 89.8826 61.9042L91.9784 65.2472C92.0298 65.3292 92.0367 65.4306 91.9978 65.5181C91.959 65.6056 91.8784 65.6681 91.784 65.6847L82.1965 67.3556C82.1798 67.3597 82.1631 67.3611 82.1465 67.3611ZM80.5242 63.9403L82.2881 66.7542L91.2617 65.1903L89.4978 62.3764L80.5242 63.9403Z" fill="#F9FAFB"/>
<path d="M90.7367 27.1972L89.9284 33.8347C88.7673 43.3722 88.6687 52.8556 89.6395 62.0597L80.0506 63.7292L90.7367 27.1972Z" fill="#98A2B3"/>
<path d="M80.0506 64.0181C79.9687 64.0181 79.8909 63.9833 79.8354 63.9222C79.7687 63.8472 79.7451 63.7444 79.7729 63.6486L90.459 27.1167C90.5006 26.9722 90.6479 26.8847 90.7951 26.9153C90.9423 26.9458 91.0423 27.0833 91.0242 27.2333L90.2159 33.8708C89.0576 43.382 88.9604 52.8556 89.927 62.0306C89.9437 62.1819 89.8395 62.3194 89.6895 62.3458L80.102 64.0167C80.084 64.0167 80.0673 64.0181 80.0506 64.0181ZM90.0229 30.6653L80.4576 63.3653L89.3229 61.8208C88.3812 52.6861 88.4881 43.2611 89.6409 33.8L90.0229 30.6653Z" fill="#F9FAFB"/>
<path d="M92.8326 30.5403L90.7367 27.1972L89.9284 33.8347C88.7673 43.3722 88.6687 52.8556 89.6395 62.0597L91.7354 65.4028C90.7659 56.1986 90.8631 46.7167 92.0242 37.1778L92.8326 30.5403Z" fill="#D0D5DD"/>
<path d="M91.734 65.6903C91.6367 65.6903 91.5437 65.6403 91.4895 65.5542L89.3937 62.2111C89.3701 62.1736 89.3562 62.1319 89.3506 62.0875C88.3798 52.8694 88.477 43.3514 89.6409 33.7972L90.4492 27.1597C90.4645 27.0389 90.5534 26.9389 90.6729 26.9125C90.7923 26.8861 90.9159 26.9375 90.9798 27.0417L93.0756 30.3847C93.1104 30.4403 93.1256 30.5069 93.1173 30.5736L92.309 37.2111C91.1506 46.7222 91.0534 56.1958 92.0201 65.3708C92.034 65.5042 91.9548 65.6306 91.827 65.6736C91.7979 65.6861 91.7659 65.6903 91.734 65.6903ZM89.9187 61.9625L91.3229 64.2042C90.4854 55.3708 90.6242 46.2722 91.7354 37.1431L92.5312 30.6069L90.9229 28.0417L90.2131 33.8694C89.059 43.3569 88.9604 52.8083 89.9187 61.9625Z" fill="#F9FAFB"/>
<path d="M78.7409 68.2083L80.8367 71.5514H78.3784L76.2826 68.2083H78.7409Z" fill="#D0D5DD"/>
<path d="M80.8367 71.8403H78.3798C78.2798 71.8403 78.1881 71.7889 78.1354 71.7042L76.0395 68.3611C75.984 68.2722 75.9812 68.1597 76.0312 68.0681C76.0826 67.9764 76.1784 67.9194 76.284 67.9194H78.7409C78.8409 67.9194 78.9326 67.9708 78.9854 68.0556L81.0812 71.3986C81.1367 71.4875 81.1395 71.6 81.0895 71.6917C81.0381 71.7833 80.9409 71.8403 80.8367 71.8403ZM78.5381 71.2625H80.3145L78.5812 68.4972H76.8062L78.5381 71.2625Z" fill="#F9FAFB"/>
<path d="M91.2979 25.2792L90.7367 27.1972L80.0506 63.7292L78.7409 68.2083L80.8367 71.5514L82.1465 67.0722L92.8326 30.5403L93.3937 28.6222L91.2979 25.2792Z" fill="#D0D5DD"/>
<path d="M80.8367 71.8403C80.7381 71.8403 80.6451 71.7903 80.5923 71.7042L78.4965 68.3611C78.452 68.2917 78.4409 68.2056 78.4645 68.1264L91.0215 25.1972C91.0534 25.0875 91.1465 25.0083 91.259 24.9917C91.3715 24.9764 91.4826 25.0278 91.5437 25.125L93.6395 28.4681C93.684 28.5375 93.6951 28.6236 93.6715 28.7028L81.1131 71.632C81.0812 71.7417 80.9881 71.8208 80.8756 71.8375C80.8631 71.8389 80.8492 71.8403 80.8367 71.8403ZM79.0548 68.1639L80.7395 70.8528L93.0798 28.6653L91.3951 25.9764L79.0548 68.1639Z" fill="#F9FAFB"/>
<path d="M91.2979 25.2792L90.7367 27.1972L80.0506 63.7292L78.7409 68.2083H76.2826L80.927 52.3361L88.8409 25.2792H91.2979Z" fill="#98A2B3"/>
<path d="M78.7409 68.4972H76.284C76.1923 68.4972 76.1076 68.4542 76.0534 68.382C75.9992 68.3097 75.9812 68.2153 76.0076 68.1278L88.5645 25.1986C88.6006 25.075 88.7131 24.9903 88.8423 24.9903H91.2992C91.3909 24.9903 91.4756 25.0333 91.5298 25.1056C91.584 25.1778 91.602 25.2722 91.5756 25.3597L79.0187 68.2889C78.9826 68.4125 78.8687 68.4972 78.7409 68.4972ZM76.6687 67.9194H78.5242L90.9131 25.5681H89.0576L76.6687 67.9194Z" fill="#F9FAFB"/>
<path d="M46.927 6.97083C46.9284 6.94306 46.9284 6.91528 46.9284 6.8875C46.9284 6.87083 46.927 6.85556 46.9256 6.84028C46.9242 6.81528 46.9229 6.79167 46.9201 6.76806C46.9187 6.75139 46.9159 6.73472 46.9131 6.71806C46.9117 6.70278 46.9104 6.6875 46.9076 6.67222C46.9062 6.66667 46.9048 6.6625 46.9048 6.65833C46.8951 6.60556 46.884 6.55278 46.8687 6.50278C46.8673 6.5 46.8673 6.49722 46.8673 6.49445C46.8645 6.48472 46.8604 6.47639 46.8576 6.46806C46.8479 6.4375 46.8367 6.40695 46.8242 6.37778C46.8215 6.37222 46.8201 6.36528 46.8173 6.35833C46.8131 6.35 46.809 6.34167 46.8048 6.33333C46.7951 6.31111 46.784 6.29028 46.7729 6.26945C46.7687 6.26111 46.7645 6.25278 46.7604 6.24444C46.752 6.23056 46.7437 6.21667 46.7354 6.20278L44.6395 2.85972C44.6534 2.88056 44.6645 2.90417 44.677 2.92639C44.6881 2.94722 44.6992 2.96945 44.709 2.99028C44.7159 3.00417 44.7229 3.01945 44.7284 3.03472C44.7409 3.06389 44.752 3.09445 44.7617 3.125C44.7659 3.13611 44.7701 3.14722 44.7729 3.15972C44.7881 3.20972 44.8006 3.26111 44.809 3.31528C44.8131 3.33472 44.8159 3.35417 44.8187 3.375C44.8215 3.39167 44.8229 3.40833 44.8256 3.425C44.8284 3.44861 44.8298 3.47361 44.8312 3.49722C44.8326 3.5125 44.8326 3.52917 44.834 3.54445C44.834 3.57223 44.834 3.6 44.8326 3.62778C44.8326 3.64167 44.8326 3.65417 44.8312 3.66806C44.8284 3.70972 44.8242 3.75278 44.8187 3.79584L44.5506 5.76389L46.6465 9.10695L46.9145 7.13889C46.9201 7.09583 46.9242 7.05417 46.927 7.01111C46.927 6.99861 46.927 6.98472 46.927 6.97083Z" fill="#E4E7EC"/>
<path d="M46.6465 9.39583C46.5479 9.39583 46.4548 9.34584 46.402 9.25973L44.3062 5.91667C44.2701 5.85973 44.2562 5.79167 44.2645 5.72361L44.5326 3.75556C44.5367 3.72084 44.5409 3.68472 44.5423 3.65V3.61806C44.5437 3.59445 44.5437 3.57084 44.5437 3.54862L44.5423 3.52361L44.5409 3.50834C44.5395 3.48889 44.5395 3.46945 44.5367 3.45L44.5312 3.4125C44.5284 3.39445 44.5256 3.37778 44.5242 3.3625C44.5159 3.31806 44.5062 3.27639 44.4951 3.24028L44.4854 3.21389C44.477 3.19028 44.4687 3.16667 44.459 3.14306L44.4437 3.10973C44.4367 3.09306 44.4284 3.07639 44.4187 3.06112L44.4117 3.04862C44.4048 3.03612 44.3979 3.02361 44.3909 3.01111V3.00973C44.3062 2.875 44.3465 2.69584 44.4826 2.61112C44.6173 2.52639 44.7965 2.56667 44.8812 2.70139L46.977 6.04445C46.9881 6.06112 46.9978 6.07778 47.0076 6.09584C47.0145 6.10834 47.0201 6.11945 47.0256 6.13056C47.0381 6.15417 47.052 6.18056 47.0645 6.20834C47.0687 6.21667 47.0742 6.22778 47.0798 6.23889C47.0826 6.24584 47.0895 6.26389 47.0923 6.27223C47.1034 6.29861 47.1173 6.33473 47.1298 6.37223C47.134 6.38056 47.1381 6.39167 47.1409 6.40417C47.1423 6.41112 47.1451 6.41945 47.1465 6.42639C47.1604 6.47362 47.1742 6.53195 47.1867 6.59306C47.1895 6.60278 47.1909 6.61112 47.1923 6.62084C47.1951 6.63334 47.1965 6.64722 47.1978 6.66111L46.9131 6.7125L47.2006 6.68612C47.2034 6.70139 47.2048 6.71806 47.2062 6.73473C47.209 6.76251 47.2104 6.79167 47.2117 6.82084C47.2131 6.84723 47.2145 6.86111 47.2145 6.87639C47.2145 6.91112 47.2145 6.94306 47.2131 6.97639V6.9875C47.2131 7 47.2131 7.01111 47.2117 7.02361C47.209 7.07223 47.2048 7.12223 47.1978 7.17223L46.9326 9.14584C46.9159 9.26667 46.8256 9.36389 46.7076 9.38889C46.6867 9.39445 46.6659 9.39583 46.6465 9.39583ZM44.8506 5.69861L46.4673 8.27778L46.6284 7.1C46.6326 7.06528 46.6367 7.02917 46.6381 6.99445L46.6395 6.96111C46.6409 6.93889 46.6409 6.91528 46.6409 6.89306L46.6381 6.85417C46.6367 6.83473 46.6367 6.81528 46.634 6.79584L46.6256 6.725C46.6242 6.71806 46.6229 6.71111 46.6215 6.70278C46.6145 6.66389 46.6048 6.62223 46.5937 6.58473C46.5937 6.58195 46.5923 6.58056 46.5923 6.57778C46.5895 6.57223 46.5881 6.56528 46.5854 6.55834C46.577 6.53473 46.5687 6.51111 46.559 6.48889C46.5576 6.48472 46.5548 6.47778 46.552 6.47084C46.5492 6.46528 46.5451 6.45695 46.5437 6.45417C46.5367 6.43889 46.5284 6.42223 46.5201 6.40695C46.5173 6.40278 46.509 6.38612 46.5076 6.38195L46.4923 6.35695L45.0729 4.09167L44.8506 5.69861Z" fill="#F9FAFB"/>
<path d="M43.7437 2.3625C44.4451 2.3625 44.927 3.00417 44.8187 3.79584L44.5506 5.76389L43.3395 14.6528C43.2312 15.4458 42.5756 16.0861 41.8742 16.0861H39.5173C38.8159 16.0861 38.334 15.4444 38.4423 14.6528L39.6534 5.76389L39.9215 3.79584C40.0298 3.00278 40.6854 2.3625 41.3867 2.3625H43.7437Z" fill="#F7F9FC"/>
<path d="M41.8729 16.375H39.5159C39.1229 16.375 38.7645 16.2139 38.509 15.9208C38.2159 15.5861 38.0867 15.1097 38.1548 14.6139L39.634 3.75695C39.7631 2.8125 40.5326 2.07361 41.3854 2.07361H43.7423C44.1353 2.07361 44.4937 2.23472 44.7492 2.52778C45.0423 2.8625 45.1715 3.33889 45.1034 3.83473L43.6242 14.6917C43.4965 15.6361 42.727 16.375 41.8729 16.375ZM41.3867 2.65139C40.8256 2.65139 40.2965 3.18195 40.2076 3.83473L38.7284 14.6917C38.684 15.0222 38.7631 15.3319 38.9451 15.5403C39.0923 15.7083 39.2895 15.7972 39.5173 15.7972H41.8742C42.4354 15.7972 42.9645 15.2667 43.0534 14.6139L44.5326 3.75695C44.577 3.42639 44.4979 3.11806 44.3159 2.90833C44.1687 2.74028 43.9715 2.65139 43.7437 2.65139H41.3867Z" fill="#F9FAFB"/>
<path d="M32.4423 25.2792H27.8298C27.4923 25.2792 27.1812 25.2056 26.9048 25.0708C26.8256 25.0319 26.7506 24.9889 26.677 24.9417C26.5312 24.8458 26.3979 24.7319 26.2798 24.6014C26.1909 24.5042 26.1104 24.3972 26.0381 24.2819L28.134 27.625C28.5173 28.2361 29.1548 28.6222 29.9256 28.6222H34.5381L32.4423 25.2792Z" fill="#D0D5DD"/>
<path d="M34.5381 28.9111H29.9256C29.0826 28.9111 28.3409 28.4986 27.8895 27.7778L25.7951 24.4361V24.4347C25.7104 24.3 25.7506 24.1208 25.8867 24.0361C26.0215 23.9514 26.2006 23.9917 26.2854 24.1278C26.3479 24.2278 26.4187 24.3208 26.4965 24.4056C26.5992 24.5181 26.7145 24.6167 26.8381 24.6986C26.9006 24.7403 26.9659 24.7778 27.034 24.8097C27.2784 24.9292 27.5465 24.9889 27.8326 24.9889H32.4451C32.5451 24.9889 32.6367 25.0403 32.6895 25.125L34.7854 28.4681C34.8409 28.5569 34.8437 28.6694 34.7937 28.7611C34.7395 28.8542 34.6437 28.9111 34.5381 28.9111ZM27.1215 25.4653L28.3784 27.4722C28.7215 28.0194 29.2854 28.3347 29.9242 28.3347H34.0145L32.2812 25.5694H27.8284C27.584 25.5681 27.3465 25.5333 27.1215 25.4653Z" fill="#F9FAFB"/>
<path d="M87.984 6.97083C87.9854 6.94306 87.9854 6.91528 87.9854 6.8875C87.9854 6.87083 87.984 6.85556 87.9826 6.83889C87.9812 6.81528 87.9798 6.79028 87.977 6.76667C87.9756 6.75 87.9729 6.73334 87.9701 6.71667C87.9687 6.70139 87.9673 6.68611 87.9645 6.67222C87.9631 6.66667 87.9617 6.6625 87.9617 6.65694C87.952 6.60417 87.9409 6.55278 87.9256 6.50278C87.9242 6.5 87.9242 6.49722 87.9242 6.49445C87.9215 6.48611 87.9173 6.47778 87.9145 6.46806C87.9048 6.4375 87.8937 6.40695 87.8812 6.37778C87.8784 6.37222 87.877 6.36528 87.8742 6.35833C87.8701 6.35 87.8659 6.34167 87.8617 6.33333C87.852 6.31111 87.8409 6.29028 87.8298 6.26806C87.8256 6.25972 87.8215 6.25139 87.8173 6.24306C87.809 6.22917 87.8006 6.21528 87.7923 6.20139L85.6965 2.85834C85.7104 2.87917 85.7215 2.90278 85.734 2.925C85.7451 2.94583 85.7562 2.96806 85.7659 2.99028C85.7729 3.00417 85.7798 3.01945 85.7854 3.03472C85.7979 3.06389 85.809 3.09445 85.8187 3.12639C85.8229 3.1375 85.827 3.14861 85.8298 3.15972C85.8451 3.20972 85.8576 3.26111 85.8659 3.31528C85.8701 3.33472 85.8728 3.35417 85.8756 3.375C85.8784 3.39167 85.8798 3.40833 85.8826 3.425C85.8854 3.44861 85.8867 3.47361 85.8881 3.49722C85.8895 3.51389 85.8909 3.52917 85.8909 3.54583C85.8909 3.57361 85.8909 3.60139 85.8895 3.62917C85.8895 3.64306 85.8895 3.65694 85.8881 3.67083C85.8854 3.7125 85.8812 3.75556 85.8756 3.79722L85.6076 5.76528L87.7034 9.10834L87.9715 7.14028C87.977 7.09722 87.9812 7.05556 87.984 7.01389C87.984 6.99861 87.984 6.98472 87.984 6.97083Z" fill="#E4E7EC"/>
<path d="M87.702 9.39583C87.6034 9.39583 87.5104 9.34583 87.4576 9.25972L85.3617 5.91667C85.3256 5.85972 85.3117 5.79167 85.3201 5.72361L85.5881 3.75556C85.5923 3.72083 85.5965 3.68472 85.5979 3.65139V3.61806C85.5992 3.59445 85.5992 3.57222 85.5992 3.55L85.5965 3.51111C85.5951 3.49167 85.5951 3.47222 85.5923 3.45417L85.5895 3.42639C85.5854 3.39861 85.584 3.38195 85.5812 3.36667C85.5742 3.325 85.5645 3.28334 85.552 3.24445L85.5437 3.22083C85.5354 3.19583 85.527 3.17222 85.5173 3.14861C85.5131 3.1375 85.5076 3.12778 85.5034 3.11667C85.4951 3.09861 85.4867 3.08195 85.4784 3.06528C85.4673 3.04306 85.459 3.02917 85.4506 3.01528C85.3659 2.88055 85.4076 2.70139 85.5423 2.61806C85.677 2.53333 85.8548 2.575 85.9409 2.70972L88.0367 6.05278C88.0479 6.07084 88.0576 6.0875 88.0687 6.10555C88.0729 6.11389 88.0798 6.125 88.0854 6.1375C88.0979 6.16111 88.1117 6.1875 88.1242 6.21528C88.1298 6.225 88.1354 6.23611 88.1395 6.24722C88.1423 6.25417 88.1492 6.27083 88.1506 6.27778C88.1631 6.30695 88.177 6.34445 88.1895 6.38195C88.1923 6.38889 88.1965 6.4 88.2006 6.41111C88.202 6.41667 88.2048 6.425 88.2062 6.43333C88.2215 6.48195 88.234 6.53889 88.2465 6.60139C88.2479 6.60833 88.2492 6.61528 88.2506 6.62222C88.2534 6.64167 88.2562 6.65694 88.2576 6.67083C88.2617 6.70139 88.2645 6.72083 88.2659 6.74028C88.2687 6.76944 88.2701 6.79861 88.2715 6.82778C88.2729 6.85139 88.2742 6.86806 88.2742 6.88611C88.2742 6.91667 88.2742 6.95 88.2729 6.98195V6.99167C88.2729 7.00417 88.2729 7.01805 88.2715 7.03055C88.2687 7.07917 88.2645 7.12917 88.2576 7.17917L87.9881 9.14583C87.9715 9.26667 87.8812 9.36389 87.7631 9.38889C87.7423 9.39445 87.7229 9.39583 87.702 9.39583ZM85.9076 5.69861L87.5242 8.27778L87.6854 7.1C87.6895 7.06528 87.6937 7.02917 87.6951 6.99583V6.96111C87.6965 6.93889 87.6965 6.91667 87.6965 6.89445L87.6951 6.86944L87.6937 6.85556C87.6923 6.83611 87.6923 6.81667 87.6895 6.79861L87.6812 6.73473C87.6812 6.73473 87.6798 6.72361 87.677 6.71389C87.6687 6.66667 87.659 6.62639 87.6479 6.58889L87.6465 6.58333C87.6437 6.57639 87.6409 6.56944 87.6395 6.5625C87.6312 6.5375 87.6228 6.51389 87.6131 6.49167C87.6117 6.48889 87.609 6.48194 87.6076 6.475C87.6034 6.46805 87.5992 6.45833 87.5979 6.45556C87.5909 6.44028 87.5826 6.42361 87.5742 6.40695C87.5715 6.40278 87.5645 6.3875 87.5631 6.38333C87.559 6.37639 87.5534 6.36667 87.5465 6.35556L86.127 4.09028L85.9076 5.69861Z" fill="#F9FAFB"/>
<path d="M84.7992 2.3625C85.5006 2.3625 85.984 3.00417 85.8756 3.79584L85.6076 5.76389L84.3965 14.6528C84.2881 15.4458 83.6312 16.0861 82.9298 16.0861H80.5729C79.8715 16.0861 79.3895 15.4444 79.4979 14.6528L80.709 5.76389L80.977 3.79584C81.0854 3.00278 81.7423 2.3625 82.4423 2.3625H84.7992Z" fill="#F7F9FC"/>
<path d="M82.9284 16.375H80.5715C80.1784 16.375 79.8201 16.2139 79.5645 15.9194C79.2715 15.5847 79.1423 15.1083 79.2104 14.6125L80.6895 3.75556C80.8159 2.82778 81.602 2.07222 82.4409 2.07222H84.7979C85.1909 2.07222 85.5492 2.23334 85.8062 2.52778C86.0992 2.8625 86.2284 3.33889 86.1604 3.83473L84.6812 14.6917C84.5534 15.6361 83.7826 16.375 82.9284 16.375ZM82.4423 2.65139C81.8909 2.65139 81.3506 3.19306 81.2631 3.83473L79.784 14.6917C79.7395 15.0208 79.8187 15.3306 80.0006 15.5403C80.1479 15.7083 80.3451 15.7972 80.5729 15.7972H82.9298C83.4826 15.7972 84.0229 15.2556 84.1104 14.6139L85.5895 3.75695C85.634 3.42778 85.5548 3.11806 85.3728 2.90833C85.2256 2.74028 85.0284 2.65139 84.8006 2.65139H82.4423Z" fill="#F9FAFB"/>
<path d="M88.8409 25.2792L90.9353 28.6222L34.5381 28.6222L32.4423 25.2792H88.8409Z" fill="#1D2739"/>
<path d="M90.9353 28.9111H34.5381C34.4381 28.9111 34.3465 28.8597 34.2937 28.775L32.1978 25.4319C32.1423 25.3431 32.1395 25.2306 32.1895 25.1389C32.2409 25.0472 32.3367 24.9903 32.4423 24.9903H88.8395C88.9395 24.9903 89.0312 25.0417 89.084 25.1264L91.1798 28.4694C91.2354 28.5583 91.2381 28.6708 91.1881 28.7625C91.1381 28.8542 91.0409 28.9111 90.9353 28.9111ZM34.6978 28.3333H90.4131L88.6798 25.5681H32.9645L34.6978 28.3333Z" fill="#F9FAFB"/>
<path d="M99.0423 11.6389C99.0437 11.5833 99.0465 11.5278 99.0451 11.4736C99.0451 11.4417 99.0423 11.4097 99.0409 11.3778C99.0381 11.3292 99.0354 11.2806 99.0312 11.2319C99.0284 11.1986 99.0229 11.1667 99.0187 11.1333C99.0145 11.1028 99.0117 11.0722 99.0076 11.0431C99.0048 11.0264 99.0006 11.0097 98.9979 10.9931C98.9937 10.9694 98.9895 10.9472 98.984 10.925C98.9729 10.8722 98.9604 10.8208 98.9465 10.7694C98.9409 10.75 98.9367 10.7319 98.9312 10.7125C98.9284 10.7042 98.927 10.6972 98.9242 10.6889C98.9187 10.6708 98.9103 10.6542 98.9048 10.6361C98.884 10.575 98.8617 10.5139 98.8367 10.4542C98.8312 10.4417 98.8284 10.4278 98.8229 10.4167C98.8159 10.4 98.8062 10.3833 98.7979 10.3667C98.777 10.3222 98.7562 10.2792 98.7326 10.2375C98.7242 10.2208 98.7173 10.2042 98.7076 10.1889C98.6909 10.1611 98.6742 10.1333 98.6576 10.1056L96.5617 6.7625C96.5881 6.80556 96.6117 6.85 96.6367 6.89583C96.659 6.9375 96.6812 6.98195 96.702 7.025C96.7159 7.05417 96.7284 7.08333 96.7409 7.1125C96.7659 7.17083 96.7881 7.23195 96.809 7.29445C96.8173 7.31945 96.827 7.34445 96.8354 7.37084C96.8409 7.39028 96.8451 7.40834 96.8506 7.42778C96.8645 7.47917 96.877 7.53056 96.8881 7.58333C96.8923 7.60556 96.8979 7.62917 96.902 7.65139C96.9103 7.69722 96.9173 7.74445 96.9242 7.79306C96.9284 7.82639 96.934 7.85834 96.9367 7.89167C96.9409 7.93889 96.9437 7.9875 96.9465 8.0375C96.9479 8.06944 96.9506 8.10139 96.9506 8.13333C96.952 8.1875 96.9506 8.24306 96.9479 8.29861C96.9465 8.32639 96.9479 8.35278 96.9465 8.38056C96.9409 8.46389 96.934 8.54861 96.9215 8.63472L95.0437 22.4139C95.0312 22.5014 95.0145 22.5889 94.9965 22.675C94.9909 22.6972 94.9867 22.7194 94.9812 22.7431C94.9631 22.8194 94.9423 22.8958 94.9187 22.9708C94.9159 22.9792 94.9131 22.9889 94.9104 22.9972C94.884 23.0792 94.8534 23.1597 94.8215 23.2403C94.8131 23.2611 94.8048 23.2819 94.7951 23.3028C94.7673 23.3694 94.7367 23.4347 94.7048 23.4986C94.6979 23.5125 94.6909 23.5278 94.684 23.5417C94.6687 23.5722 94.6492 23.6014 94.6326 23.6319C94.5992 23.6931 94.5659 23.7528 94.5284 23.8111C94.5048 23.85 94.4784 23.8861 94.4534 23.9236C94.4242 23.9653 94.3965 24.0069 94.3659 24.0472C94.3367 24.0861 94.3048 24.1236 94.2742 24.1611C94.2465 24.1944 94.2201 24.2292 94.1909 24.2611C94.1576 24.2986 94.1228 24.3347 94.0867 24.3708C94.059 24.4 94.0312 24.4306 94.002 24.4583C93.9673 24.4931 93.9298 24.5236 93.8923 24.5569C93.8604 24.5847 93.8298 24.6139 93.7979 24.6403C93.7645 24.6681 93.7298 24.6917 93.6951 24.7181C93.6562 24.7472 93.6159 24.7778 93.5756 24.8056C93.5465 24.825 93.5159 24.8431 93.4854 24.8611C93.4326 24.8944 93.3812 24.9264 93.327 24.9556C93.2617 24.9917 93.1965 25.0264 93.1284 25.0556H93.127C93.0576 25.0861 92.9867 25.1139 92.9145 25.1389C92.8867 25.1486 92.859 25.1569 92.8298 25.1667C92.7798 25.1819 92.7284 25.1972 92.677 25.2097C92.6479 25.2167 92.6187 25.2236 92.5895 25.2306C92.5354 25.2417 92.4812 25.25 92.4256 25.2583C92.4006 25.2625 92.3742 25.2667 92.3492 25.2694C92.2687 25.2778 92.1881 25.2833 92.1076 25.2833H88.8381L90.934 28.6264H94.2034C94.284 28.6264 94.3645 28.6208 94.4451 28.6125C94.4715 28.6097 94.4965 28.6056 94.5215 28.6014C94.5756 28.5944 94.6312 28.5847 94.6853 28.5736C94.7145 28.5681 94.7437 28.5611 94.7729 28.5528C94.8242 28.5403 94.8756 28.5264 94.9256 28.5097C94.9534 28.5014 94.9826 28.4917 95.0104 28.4819C95.0256 28.4764 95.0409 28.4736 95.0548 28.4681C95.1117 28.4472 95.1673 28.4236 95.2229 28.4H95.2242C95.2798 28.375 95.3354 28.3486 95.3895 28.3194C95.4006 28.3139 95.4118 28.3056 95.4229 28.3C95.477 28.2708 95.5284 28.2389 95.5812 28.2056C95.6048 28.1917 95.6284 28.1792 95.6506 28.1639C95.6576 28.1597 95.6645 28.1542 95.6701 28.1486C95.7104 28.1208 95.7492 28.0917 95.7881 28.0611C95.8173 28.0403 95.8465 28.0208 95.8742 27.9972C95.8798 27.9931 95.8854 27.9875 95.8909 27.9819C95.9229 27.9556 95.9534 27.9264 95.9854 27.8986C96.0159 27.8722 96.0465 27.8472 96.0756 27.8194C96.0826 27.8139 96.0881 27.8069 96.0951 27.8C96.1242 27.7722 96.152 27.7417 96.1798 27.7125C96.2076 27.6847 96.2354 27.6569 96.2631 27.6278C96.2701 27.6194 96.277 27.6111 96.284 27.6028C96.3131 27.5708 96.3395 27.5361 96.3673 27.5028C96.3909 27.4736 96.4159 27.4472 96.4381 27.4181C96.4451 27.4083 96.452 27.3986 96.459 27.3889C96.4895 27.3486 96.5173 27.3069 96.5451 27.2653C96.5645 27.2361 96.5867 27.2097 96.6048 27.1806C96.6104 27.1722 96.6145 27.1625 96.6201 27.1542C96.6562 27.0958 96.6909 27.0361 96.7242 26.975C96.7381 26.95 96.7534 26.9278 96.7659 26.9028C96.7687 26.8972 96.7715 26.8903 96.7742 26.8847C96.7812 26.8708 96.7881 26.8556 96.7951 26.8417C96.827 26.7778 96.8576 26.7125 96.8854 26.6458C96.8937 26.625 96.9034 26.6042 96.9117 26.5833C96.9173 26.5681 96.9256 26.5528 96.9312 26.5375C96.9562 26.4722 96.9798 26.4069 97.0006 26.3403C97.0034 26.3319 97.0062 26.3222 97.009 26.3139C97.0326 26.2389 97.052 26.1625 97.0715 26.0861C97.077 26.0639 97.0826 26.0417 97.0867 26.0181C97.1048 25.9319 97.1215 25.8458 97.134 25.7569L99.0117 11.9778C99.0229 11.8917 99.0312 11.8069 99.0367 11.7236C99.0423 11.6931 99.0409 11.6667 99.0423 11.6389Z" fill="#D0D5DD"/>
<path d="M94.2062 28.9111H90.9353C90.8354 28.9111 90.7437 28.8597 90.6909 28.775L88.5951 25.4319C88.5395 25.3431 88.5367 25.2306 88.5867 25.1389C88.6381 25.0472 88.734 24.9903 88.8395 24.9903H92.1103C92.1742 24.9903 92.2437 24.9861 92.3228 24.9778C92.3353 24.9764 92.3465 24.975 92.3589 24.9722L92.3895 24.9681C92.4381 24.9611 92.4853 24.9542 92.534 24.9444C92.5603 24.9389 92.5854 24.9333 92.6104 24.9264C92.6562 24.9153 92.7006 24.9028 92.7451 24.8889C92.7756 24.8792 92.7978 24.8722 92.8201 24.8653C92.8964 24.8389 92.9562 24.8153 93.0103 24.7917L93.0131 24.7903C93.0728 24.7639 93.1312 24.7333 93.1881 24.7014C93.2367 24.675 93.284 24.6458 93.3312 24.6153L93.3659 24.5944C93.3812 24.5847 93.3965 24.575 93.4117 24.5653C93.4409 24.5458 93.4687 24.5236 93.4978 24.5028L93.5534 24.4611C93.5742 24.4458 93.5951 24.4306 93.6145 24.4153C93.634 24.3986 93.6534 24.3819 93.6728 24.3653L93.7242 24.3208C93.7506 24.2986 93.777 24.275 93.802 24.2514C93.8201 24.2333 93.8395 24.2139 93.8576 24.1944L93.8909 24.1597C93.9201 24.1306 93.9478 24.1014 93.9756 24.0708C93.9965 24.0472 94.0159 24.0236 94.034 24L94.052 23.9778C94.0867 23.9361 94.1117 23.9056 94.1353 23.8722C94.159 23.8403 94.1812 23.8083 94.2034 23.775L94.2312 23.7333C94.2492 23.7083 94.2673 23.6819 94.284 23.6556C94.3173 23.6014 94.3492 23.5472 94.3798 23.4917L94.402 23.4528C94.4103 23.4389 94.4187 23.425 94.4256 23.4097L94.4451 23.3694C94.4742 23.3111 94.502 23.2514 94.527 23.1903L94.5506 23.1333C94.5826 23.0528 94.6103 22.9792 94.6312 22.9111C94.6312 22.9083 94.6367 22.8903 94.6381 22.8875C94.6603 22.8167 94.6784 22.7472 94.6951 22.6764L94.709 22.6153C94.7284 22.5236 94.7423 22.4486 94.752 22.3764L96.6298 8.59722C96.6395 8.52222 96.6478 8.44445 96.652 8.36528C96.652 8.35278 96.6534 8.33889 96.6534 8.32639V8.29028C96.6548 8.23889 96.6562 8.18889 96.6562 8.13889C96.6562 8.11945 96.6548 8.10139 96.6534 8.08195L96.652 8.05417C96.6492 8.00834 96.6478 7.96528 96.6437 7.92222C96.6409 7.89861 96.6381 7.875 96.634 7.85139L96.6312 7.83472C96.6256 7.79167 96.6201 7.75 96.6117 7.70833C96.6076 7.6875 96.6034 7.66806 96.5992 7.64722C96.5895 7.6 96.577 7.55417 96.5645 7.50833L96.5506 7.45694C96.5479 7.44583 96.5437 7.43472 96.5395 7.42361L96.5284 7.39167C96.5103 7.33611 96.4895 7.28195 96.4687 7.22917C96.4576 7.20278 96.4464 7.17778 96.434 7.15278C96.4159 7.11389 96.3965 7.075 96.3756 7.0375L96.3659 7.01945C96.3478 6.98611 96.3298 6.95278 96.3103 6.92084C96.2256 6.78611 96.2673 6.60694 96.402 6.52222C96.5381 6.4375 96.7159 6.47778 96.8006 6.61389L98.8965 9.95695C98.9159 9.9875 98.934 10.0194 98.952 10.0514C98.9603 10.0667 98.9687 10.0819 98.9756 10.0972C99.0062 10.1542 99.0298 10.2028 99.0534 10.2528C99.0659 10.2764 99.0742 10.2931 99.0812 10.3097C99.0867 10.3208 99.0923 10.3361 99.0965 10.3514C99.1242 10.4167 99.1478 10.4833 99.1715 10.5528C99.1812 10.5778 99.1881 10.5944 99.1937 10.6111C99.1951 10.6153 99.1992 10.6319 99.2006 10.6361L99.2173 10.6986C99.2326 10.7556 99.2465 10.8125 99.259 10.8708C99.2645 10.8972 99.2701 10.9208 99.2742 10.9458L99.277 10.9611C99.2798 10.975 99.2826 10.9889 99.2853 11.0028C99.2895 11.025 99.2923 11.0486 99.2951 11.0736L99.302 11.1264C99.3062 11.1542 99.309 11.1819 99.3131 11.2111C99.3187 11.2625 99.3215 11.3167 99.3242 11.3694L99.3256 11.3972C99.327 11.4236 99.3284 11.4486 99.3298 11.475C99.3312 11.5333 99.3298 11.5931 99.327 11.6542V11.6833C99.327 11.7042 99.327 11.725 99.3256 11.7458C99.3201 11.8403 99.3117 11.9333 99.2992 12.0222L97.4215 25.8014C97.4103 25.8861 97.3937 25.9764 97.3701 26.0847C97.3645 26.1097 97.359 26.1347 97.3534 26.1597C97.334 26.2417 97.3117 26.3236 97.2867 26.4056L97.2784 26.4361C97.2562 26.5069 97.2312 26.5778 97.2034 26.6486C97.1992 26.6611 97.1937 26.6722 97.1895 26.6833L97.159 26.7583C97.1256 26.8375 97.0923 26.9083 97.0576 26.9778L97.0242 27.0444C97.0145 27.0625 97.0034 27.0819 96.9923 27.1L96.9798 27.1222C96.9437 27.1875 96.9062 27.2528 96.8673 27.3153C96.8617 27.325 96.8562 27.3361 96.8492 27.3458C96.8367 27.3667 96.8215 27.3875 96.8062 27.4083L96.7742 27.4542C96.7478 27.4931 96.7201 27.5319 96.6923 27.5694C96.684 27.5819 96.677 27.5917 96.6701 27.6014C96.6534 27.6236 96.6354 27.6431 96.6187 27.6639L96.5784 27.7125C96.5548 27.7417 96.5298 27.7722 96.5048 27.8C96.4965 27.8111 96.4895 27.8194 96.4826 27.8278C96.4617 27.8514 96.4409 27.8722 96.4187 27.8931L96.3701 27.9431C96.3465 27.9667 96.3242 27.9917 96.2992 28.0139C96.2937 28.0194 96.2867 28.0278 96.2784 28.0347C96.2562 28.0556 96.234 28.075 96.2103 28.0944L96.1562 28.1417C96.1298 28.1653 96.1048 28.1875 96.077 28.2097C96.0728 28.2139 96.0659 28.2194 96.059 28.225C96.0367 28.2431 96.0159 28.2583 95.9937 28.2736L95.9409 28.3125C95.9062 28.3389 95.8715 28.3653 95.8353 28.3889C95.8298 28.3931 95.8215 28.4 95.8117 28.4056C95.7951 28.4167 95.7756 28.4278 95.7562 28.4389L95.7367 28.45C95.6798 28.4861 95.6228 28.5208 95.5631 28.5528C95.5506 28.5611 95.5395 28.5681 95.527 28.5736C95.4659 28.6056 95.4048 28.6347 95.3437 28.6625L95.3395 28.6639C95.2798 28.6903 95.2187 28.7153 95.1562 28.7389C95.1437 28.7431 95.1298 28.7486 95.1159 28.7528C95.0784 28.7653 95.0492 28.775 95.0201 28.7833C94.9576 28.8028 94.9006 28.8181 94.8437 28.8333C94.8117 28.8417 94.7798 28.8486 94.7465 28.8556C94.6867 28.8681 94.6256 28.8778 94.5631 28.8861L94.5395 28.8889C94.5187 28.8917 94.4978 28.8958 94.4756 28.8972C94.3798 28.9056 94.2909 28.9111 94.2062 28.9111ZM91.0965 28.3333H94.2062C94.2701 28.3333 94.3395 28.3292 94.4187 28.3208C94.4312 28.3194 94.4437 28.3181 94.4548 28.3153L94.4854 28.3111C94.534 28.3042 94.5812 28.2972 94.6298 28.2875C94.6562 28.2819 94.6812 28.2764 94.7062 28.2694C94.752 28.2583 94.7965 28.2458 94.8423 28.2319C94.8715 28.2222 94.8951 28.2153 94.9173 28.2083L94.9492 28.1986C95.009 28.1778 95.0576 28.1569 95.1076 28.1347L95.1104 28.1333C95.159 28.1111 95.209 28.0875 95.2562 28.0625C95.2645 28.0569 95.2756 28.05 95.2853 28.0444C95.334 28.0181 95.3812 27.9889 95.4284 27.9597C95.4423 27.9514 95.4562 27.9431 95.4701 27.9347C95.477 27.9306 95.4854 27.9264 95.4923 27.9222C95.4951 27.9194 95.502 27.9139 95.509 27.9097C95.5381 27.8903 95.5645 27.8694 95.5923 27.8486L95.659 27.8C95.6714 27.7903 95.684 27.7819 95.6965 27.7722L95.7117 27.7583C95.7326 27.7417 95.7506 27.725 95.7701 27.7083L95.8353 27.6514C95.8506 27.6389 95.8659 27.625 95.8812 27.6111C95.884 27.6083 95.8937 27.5972 95.8978 27.5944C95.9173 27.5764 95.934 27.5583 95.952 27.5403L96.0103 27.4806C96.0242 27.4667 96.0395 27.4514 96.052 27.4375C96.059 27.4292 96.0645 27.4208 96.0715 27.4139C96.0909 27.3917 96.1103 27.3681 96.1298 27.3444L96.1798 27.2847C96.1909 27.2722 96.202 27.2583 96.2131 27.2444C96.2187 27.2347 96.2256 27.2264 96.2312 27.2181C96.2548 27.1861 96.277 27.1542 96.2992 27.1222L96.3409 27.0639C96.3492 27.0514 96.359 27.0403 96.3673 27.0264C96.3715 27.0181 96.377 27.0097 96.3826 27.0014C96.4159 26.9486 96.4465 26.8931 96.4784 26.8375C96.4867 26.8236 96.4951 26.8097 96.502 26.7958C96.5076 26.7875 96.5117 26.7792 96.5159 26.7708L96.5437 26.7139C96.5728 26.6542 96.6006 26.5944 96.627 26.5333L96.6687 26.4347C96.6923 26.375 96.7131 26.3153 96.7326 26.2542L96.7409 26.2264C96.7617 26.1611 96.7798 26.0903 96.7965 26.0194C96.802 25.9986 96.8062 25.9778 96.8103 25.9583C96.8298 25.8653 96.8437 25.7889 96.8534 25.7194L98.7312 11.9403C98.7409 11.8653 98.7492 11.7875 98.7534 11.7083C98.7534 11.6958 98.7534 11.6847 98.7548 11.6722L98.7562 11.6333C98.7576 11.5833 98.759 11.5333 98.759 11.4847C98.759 11.4653 98.7576 11.4472 98.7562 11.4306L98.7548 11.3972C98.752 11.3542 98.7506 11.3097 98.7465 11.2667C98.7437 11.2444 98.7409 11.2236 98.7381 11.2028L98.7298 11.1375C98.7284 11.1236 98.727 11.1097 98.7242 11.0958L98.702 10.9875C98.6923 10.9417 98.6812 10.8958 98.6687 10.85L98.6548 10.7986C98.6534 10.7958 98.6506 10.7819 98.6492 10.7778C98.6409 10.7569 98.6353 10.7431 98.6312 10.7292C98.6131 10.6764 98.5937 10.6222 98.5715 10.5694C98.5659 10.5569 98.5617 10.5458 98.5576 10.5333C98.5478 10.5153 98.5423 10.5042 98.5367 10.4931C98.5187 10.4528 98.4992 10.4153 98.4784 10.3778C98.4715 10.3653 98.4659 10.3542 98.4604 10.3417C98.4423 10.3097 98.4284 10.2847 98.4131 10.2611L97.2353 8.38334C97.2353 8.38889 97.2353 8.39306 97.234 8.39861C97.2284 8.49306 97.2201 8.58611 97.2076 8.675L95.3298 22.4542C95.3187 22.5403 95.3006 22.6333 95.2784 22.7375C95.2728 22.7611 95.2673 22.7861 95.2617 22.8097C95.2423 22.8931 95.2201 22.9764 95.1951 23.0569L95.1881 23.0819C95.1603 23.1681 95.1298 23.2542 95.0909 23.3486L95.0673 23.4042C95.0326 23.4861 94.9992 23.5569 94.9659 23.6264L94.9423 23.675C94.9312 23.6972 94.9187 23.7194 94.9048 23.7431L94.8881 23.7722C94.852 23.8375 94.8159 23.9028 94.7756 23.9653C94.7548 23.9986 94.7326 24.0306 94.7104 24.0625L94.684 24.1014C94.6562 24.1417 94.6298 24.1806 94.6006 24.2194C94.5714 24.2583 94.5409 24.2958 94.5103 24.3333L94.4854 24.3639C94.4617 24.3944 94.4367 24.4236 94.4103 24.4528C94.3784 24.4903 94.3437 24.525 94.309 24.5611L94.2784 24.5931C94.2548 24.6181 94.2312 24.6431 94.2062 24.6667C94.1742 24.6972 94.1423 24.7264 94.109 24.7556L94.0631 24.7972C94.0367 24.8208 94.0117 24.8431 93.984 24.8653C93.9576 24.8875 93.9298 24.9083 93.9006 24.9292L93.8506 24.9667C93.8145 24.9944 93.7784 25.0208 93.7409 25.0458C93.7187 25.0611 93.6951 25.0764 93.6715 25.0903L93.6437 25.1069C93.5867 25.1431 93.5284 25.1778 93.4701 25.2111C93.4062 25.2458 93.3312 25.2861 93.252 25.3208C93.2478 25.3222 93.2437 25.325 93.2395 25.3264C93.1687 25.3569 93.0992 25.3847 93.0173 25.4139C92.9881 25.4236 92.9604 25.4333 92.9312 25.4417C92.8673 25.4611 92.8103 25.4778 92.7534 25.4917C92.7215 25.5 92.6895 25.5069 92.6562 25.5139C92.5951 25.5264 92.534 25.5361 92.4728 25.5444L92.4492 25.5472C92.4284 25.55 92.4076 25.5528 92.3867 25.5556C92.2881 25.5653 92.1992 25.5708 92.1145 25.5708H89.3659L91.0965 28.3333Z" fill="#F9FAFB"/>
<path d="M44.3923 38.8139L46.4881 42.1569H30.5798L28.484 38.8139H44.3923Z" fill="#98A2B3"/>
<path d="M46.4881 42.4458H30.5798C30.4798 42.4458 30.3881 42.3944 30.3354 42.3097L28.2395 38.9667C28.184 38.8778 28.1812 38.7653 28.2312 38.6736C28.2826 38.5819 28.3784 38.525 28.484 38.525H44.3923C44.4923 38.525 44.584 38.5764 44.6367 38.6611L46.7326 42.0042C46.7881 42.0931 46.7909 42.2056 46.7409 42.2972C46.6895 42.3889 46.5937 42.4458 46.4881 42.4458ZM30.7395 41.8681H45.9659L44.2326 39.1028H29.0062L30.7395 41.8681Z" fill="#F9FAFB"/>
<path d="M90.9353 28.6222L88.8409 25.2792L76.284 68.2083L75.4451 71.075L77.5395 74.4181L78.3784 71.5514L90.9353 28.6222Z" fill="#E4E7EC"/>
<path d="M77.6367 75.1167L75.1312 71.1181L88.7437 24.5806L91.2492 28.5792L91.2131 28.7042L77.6367 75.1167ZM75.7576 71.032L77.4423 73.7208L90.6215 28.6667L88.9367 25.9778L75.7576 71.032Z" fill="#F9FAFB"/>
<path d="M80.909 52.35L76.284 68.2083L75.4451 71.075H58.8534L80.909 52.35Z" fill="#D0D5DD"/>
<path d="M75.4451 71.3639H58.8534C58.7326 71.3639 58.6242 71.2889 58.5826 71.175C58.5409 71.0611 58.5742 70.9333 58.6673 70.8556L80.7229 52.1306C80.8201 52.0486 80.9604 52.0389 81.0673 52.1083C81.1742 52.1778 81.2229 52.3097 81.1881 52.4319L75.7242 71.1583C75.6854 71.2792 75.5729 71.3639 75.4451 71.3639ZM59.6395 70.7861H75.227L80.3604 53.1931L59.6395 70.7861Z" fill="#F9FAFB"/>
<path d="M32.4423 25.2792H88.8409L80.927 52.3361L64.3312 52.35L58.8534 71.075H19.0465L21.7854 61.7125H37.6937L44.3923 38.8139H28.484L32.4423 25.2792Z" fill="#F7F9FC"/>
<path d="M58.8534 71.3639H19.0465C18.9548 71.3639 18.8701 71.3208 18.8159 71.2486C18.7617 71.1764 18.7437 71.0819 18.7701 70.9944L21.509 61.632C21.5451 61.5083 21.6576 61.4236 21.7867 61.4236H37.4784L44.0076 39.1028H28.484C28.3923 39.1028 28.3076 39.0597 28.2534 38.9875C28.1992 38.9153 28.1812 38.8208 28.2076 38.7333L32.1673 25.1986C32.2034 25.075 32.3159 24.9903 32.4451 24.9903H88.8423C88.934 24.9903 89.0187 25.0333 89.0729 25.1056C89.127 25.1778 89.1451 25.2722 89.1187 25.3597L81.2048 52.4167C81.1687 52.5403 81.0562 52.625 80.9284 52.625L64.5492 52.6389L59.1326 71.1569C59.0951 71.2792 58.9812 71.3639 58.8534 71.3639ZM19.4326 70.7861H58.6367L64.0534 52.2681C64.0895 52.1444 64.202 52.0597 64.3298 52.0597L80.709 52.0458L88.4534 25.5667H32.659L28.8687 38.5236H44.3923C44.484 38.5236 44.5687 38.5667 44.6229 38.6389C44.677 38.7111 44.6951 38.8056 44.6687 38.8931L37.9701 61.7917C37.934 61.9153 37.8215 62 37.6923 62H22.002L19.4326 70.7861Z" fill="#F9FAFB"/>
<path d="M46.5229 25.1472L46.484 25.2792L41.6173 41.9139L41.4659 42.4292L36.7131 58.6806L36.5617 59.1972L33.0867 71.075H32.6326L36.1076 59.1972L36.259 58.6819L41.0117 42.4306L41.1631 41.9153L45.9173 25.6625L46.0284 25.2792L46.0673 25.1472H46.5229Z" fill="#F9FAFB"/>
<path d="M61.2937 25.1319L61.2506 25.2792L61.1437 25.6472L56.3895 41.8986L56.2395 42.4139H56.2381L51.4854 58.6667L51.334 59.1819L47.8548 71.075H47.3992L50.8798 59.1819L51.0298 58.6667L55.784 42.4153L55.934 41.9L60.6881 25.6472H60.6895L60.7965 25.2792L60.8381 25.1319H61.2937Z" fill="#F9FAFB"/>
<path d="M76.0659 25.1167L75.9159 25.6319L71.1617 41.8833L71.0117 42.3986L66.2562 58.6514L66.1062 59.1667L62.6229 71.075H62.1673L65.652 59.1667L65.802 58.6514L70.5562 42.4L70.7076 41.8847L75.4604 25.6333L75.5645 25.2792L75.6117 25.1167H76.0659Z" fill="#F9FAFB"/>
<path d="M83.9881 41.8708L83.8367 42.3861L71.0117 42.3986L70.5562 42.4L56.2395 42.4139H56.2381L55.784 42.4153L41.4659 42.4292L41.0117 42.4306L27.4215 42.4444L27.5729 41.9292L41.1631 41.9153L41.6173 41.9139L55.934 41.9L56.3895 41.8986L70.7076 41.8847L71.1617 41.8833L83.9881 41.8708Z" fill="#F9FAFB"/>
<path d="M79.084 58.6375L78.9326 59.1528L66.1062 59.1667H65.652L51.334 59.1819H50.8798L36.5617 59.1972H36.1076L22.5173 59.2111L22.6687 58.6958L36.259 58.6819L36.7131 58.6806L51.0298 58.6667H51.4854L65.802 58.6514H66.2562L79.084 58.6375Z" fill="#F9FAFB"/>
<path d="M75.4451 71.075H58.8534H19.0465L21.1423 74.4181H77.5395L75.4451 71.075Z" fill="#98A2B3"/>
<path d="M77.5395 74.7069H21.1423C21.0423 74.7069 20.9506 74.6556 20.8979 74.5708L18.802 71.2292C18.7465 71.1403 18.7437 71.0278 18.7937 70.9361C18.8451 70.8444 18.9409 70.7875 19.0465 70.7875H75.4437C75.5437 70.7875 75.6354 70.8389 75.6881 70.9236L77.784 74.2667C77.8395 74.3556 77.8423 74.4681 77.7923 74.5597C77.7423 74.65 77.6451 74.7069 77.5395 74.7069ZM21.302 74.1292H77.0173L75.284 71.3639H19.5687L21.302 74.1292Z" fill="#F9FAFB"/>
<path d="M28.484 38.8139H44.3923L37.6937 61.7125H21.7854L5.85758 61.7125L12.5562 38.8139H28.484ZM37.8215 45.1181C38.1034 45.1181 38.3659 44.8611 38.409 44.5444C38.452 44.2264 38.2604 43.9708 37.9784 43.9708H15.6131C15.3326 43.9708 15.0701 44.2278 15.027 44.5444C14.984 44.8611 15.177 45.1181 15.4562 45.1181H37.8215ZM36.602 49.2903C36.884 49.2903 37.1465 49.0333 37.1895 48.7167C37.2326 48.3986 37.0409 48.1431 36.759 48.1431H14.3937C14.1131 48.1431 13.8506 48.4 13.8076 48.7167C13.7645 49.0333 13.9576 49.2903 14.2367 49.2903H36.602ZM35.3812 53.4639C35.6631 53.4639 35.9256 53.2069 35.9687 52.8903C36.0117 52.5736 35.8187 52.3167 35.5381 52.3167H20.7965C20.5145 52.3167 20.252 52.5736 20.209 52.8903C20.1659 53.2083 20.3576 53.4639 20.6395 53.4639H35.3812Z" fill="#D0D5DD"/>
<path d="M37.6937 62.0014H5.85758C5.76591 62.0014 5.68119 61.9583 5.62702 61.8861C5.57285 61.8139 5.5548 61.7195 5.58119 61.632L12.2798 38.7333C12.3159 38.6097 12.4284 38.525 12.5576 38.525H44.3937C44.4854 38.525 44.5701 38.5681 44.6242 38.6403C44.6784 38.7125 44.6965 38.8069 44.6701 38.8944L37.9715 61.7931C37.9354 61.9167 37.8215 62.0014 37.6937 62.0014ZM6.2423 61.4236H37.477L44.0062 39.1028H12.7729L6.2423 61.4236ZM35.3812 53.7528H20.6395C20.4312 53.7528 20.2409 53.6667 20.1062 53.5111C19.9562 53.3389 19.8895 53.0986 19.9229 52.85C19.9854 52.3889 20.3687 52.0278 20.7965 52.0278H35.5367C35.7451 52.0278 35.9354 52.1139 36.0715 52.2694C36.2215 52.4417 36.2881 52.6819 36.2548 52.9292C36.1909 53.3903 35.8076 53.7528 35.3812 53.7528ZM20.7965 52.6056C20.6756 52.6056 20.5215 52.7389 20.4951 52.9292C20.484 53.0125 20.5006 53.0861 20.5409 53.132C20.5659 53.1611 20.5992 53.175 20.6395 53.175H35.3812C35.502 53.175 35.6562 53.0417 35.6826 52.85C35.6937 52.7681 35.677 52.6944 35.6367 52.6486C35.6117 52.6194 35.5784 52.6056 35.5381 52.6056H20.7965ZM36.602 49.5792H14.2367C14.0284 49.5792 13.8395 49.4931 13.7034 49.3375C13.5534 49.1653 13.4867 48.925 13.5201 48.6778C13.5826 48.2153 13.9659 47.8542 14.3923 47.8542H36.7562C36.9645 47.8542 37.1548 47.9403 37.2895 48.0958C37.4395 48.2681 37.5062 48.5083 37.4729 48.7569C37.4117 49.2181 37.0284 49.5792 36.602 49.5792ZM14.3937 48.4319C14.2729 48.4319 14.1201 48.5653 14.0937 48.7569C14.0826 48.8389 14.0992 48.9125 14.1395 48.9583C14.1645 48.9875 14.1965 49.0014 14.2367 49.0014H36.6006C36.7215 49.0014 36.8756 48.8681 36.902 48.6778C36.9131 48.5944 36.8965 48.5208 36.8562 48.475C36.8312 48.4458 36.7979 48.4319 36.7576 48.4319H14.3937ZM37.8215 45.4069H15.4576C15.2492 45.4069 15.0604 45.3208 14.9242 45.1653C14.7742 44.9931 14.7076 44.7528 14.7409 44.5056C14.8034 44.0431 15.1867 43.6819 15.6131 43.6819H37.9784C38.1867 43.6819 38.377 43.7681 38.5117 43.9236C38.6617 44.0958 38.7284 44.3361 38.6951 44.5847C38.6326 45.0458 38.2479 45.4069 37.8215 45.4069ZM15.6131 44.2597C15.4923 44.2597 15.3395 44.3931 15.3131 44.5847C15.302 44.6667 15.3187 44.7403 15.359 44.7861C15.384 44.8153 15.4159 44.8292 15.4562 44.8292H37.8201C37.9409 44.8292 38.0951 44.6958 38.1215 44.5056C38.1326 44.4222 38.1159 44.3486 38.0756 44.3028C38.0506 44.2736 38.0173 44.2597 37.977 44.2597H15.6131Z" fill="#F9FAFB"/>
<path d="M37.6937 61.7125H21.7854L5.85758 61.7125L7.95202 65.0556H39.7895L37.6937 61.7125Z" fill="#D0D5DD"/>
<path d="M39.7895 65.3444H7.95202C7.85202 65.3444 7.76035 65.2931 7.70758 65.2083L5.61174 61.8653C5.55619 61.7764 5.55341 61.6639 5.60341 61.5722C5.6548 61.4806 5.75063 61.4236 5.85619 61.4236H37.6923C37.7923 61.4236 37.884 61.475 37.9367 61.5597L40.0326 64.9028C40.0881 64.9917 40.0909 65.1042 40.0409 65.1958C39.9909 65.2875 39.8937 65.3444 39.7895 65.3444ZM8.11174 64.7667H39.2659L37.5326 62.0014H6.37841L8.11174 64.7667Z" fill="#F9FAFB"/>
<path d="M44.3923 38.8139L46.4881 42.1569L39.7895 65.0556L37.6937 61.7125L44.3923 38.8139Z" fill="#D0D5DD"/>
<path d="M39.7895 65.3444C39.6909 65.3444 39.5979 65.2944 39.5451 65.2083L37.4492 61.8653C37.4048 61.7958 37.3937 61.7097 37.4173 61.6306L44.1159 38.7319C44.1479 38.6222 44.2409 38.543 44.3534 38.5264C44.4659 38.5111 44.577 38.5625 44.6381 38.6597L46.734 42.0028C46.7784 42.0722 46.7895 42.1583 46.7659 42.2375L40.0673 65.1361C40.0354 65.2458 39.9423 65.325 39.8298 65.3417C39.8159 65.3444 39.802 65.3444 39.7895 65.3444ZM38.0076 61.6694L39.6923 64.3583L46.1742 42.2014L44.4895 39.5125L38.0076 61.6694Z" fill="#F9FAFB"/>
<path d="M80.909 52.35L58.8534 71.075L64.3312 52.35H80.909Z" fill="#98A2B3"/>
<path d="M58.8534 71.3639C58.7992 71.3639 58.7437 71.3486 58.6965 71.3167C58.5895 71.2472 58.5409 71.1153 58.577 70.9931L64.0548 52.2681C64.0909 52.1444 64.2034 52.0597 64.3326 52.0597H80.9103C81.0312 52.0597 81.1395 52.1347 81.1812 52.2486C81.2229 52.3625 81.1895 52.4903 81.0965 52.5681L59.0409 71.2931C58.9867 71.3417 58.9201 71.3639 58.8534 71.3639ZM64.5478 52.6389L59.4006 70.2306L80.1215 52.6389H64.5478Z" fill="#F9FAFB"/>
<path d="M94.7701 5.76389C96.1729 5.76389 97.1354 7.04861 96.9201 8.63334L95.0423 22.4125C94.827 23.9958 93.5131 25.2806 92.1103 25.2806H27.8298C26.4256 25.2806 25.4631 23.9958 25.6784 22.4125L27.5562 8.63334C27.7729 7.04861 29.0854 5.76389 30.4895 5.76389H39.6534L38.4423 14.6528C38.334 15.4458 38.8145 16.0861 39.5173 16.0861H41.8742C42.5756 16.0861 43.2326 15.4444 43.3395 14.6528L44.5506 5.76389H80.709L79.4979 14.6528C79.3895 15.4458 79.8715 16.0861 80.5729 16.0861H82.9298C83.6312 16.0861 84.2881 15.4444 84.3965 14.6528L85.6076 5.76389H94.7701Z" fill="#98A2B3"/>
<path d="M92.1104 25.5681H27.8298C27.127 25.5681 26.4895 25.2806 26.0326 24.7569C25.502 24.1486 25.2687 23.2806 25.3923 22.3722L27.2701 8.59306C27.5048 6.87361 28.9479 5.475 30.4895 5.475H39.6534C39.7367 5.475 39.8159 5.51111 39.8715 5.57361C39.927 5.63611 39.952 5.71944 39.9395 5.80278L38.7284 14.6917C38.684 15.0222 38.7631 15.3319 38.9451 15.5403C39.0923 15.7083 39.2895 15.7972 39.5173 15.7972H41.8742C42.4354 15.7972 42.9645 15.2667 43.0534 14.6139L44.2645 5.725C44.284 5.58195 44.4062 5.475 44.5506 5.475H80.709C80.7923 5.475 80.8715 5.51111 80.927 5.57361C80.9812 5.63611 81.0062 5.71944 80.9951 5.80278L79.784 14.6917C79.7395 15.0208 79.8187 15.3306 80.0006 15.5403C80.1479 15.7083 80.3451 15.7972 80.5729 15.7972H82.9298C83.4826 15.7972 84.0229 15.2556 84.1104 14.6139L85.3215 5.725C85.3409 5.58195 85.4631 5.475 85.6076 5.475H94.7715C95.4729 5.475 96.1104 5.7625 96.5673 6.28611C97.0979 6.89445 97.3312 7.76389 97.2076 8.67222L95.3298 22.4514C95.0937 24.1694 93.6506 25.5681 92.1104 25.5681ZM30.4895 6.05278C29.227 6.05278 28.0395 7.22778 27.8423 8.67222L25.9645 22.4514C25.8631 23.1931 26.0465 23.8958 26.4673 24.3778C26.8131 24.7736 27.2965 24.9917 27.8298 24.9917H92.1104C93.3728 24.9917 94.559 23.8181 94.7562 22.3736L96.634 8.59445C96.7354 7.85139 96.552 7.14861 96.1312 6.66667C95.7867 6.27083 95.3034 6.05417 94.7701 6.05417H85.859L84.6812 14.6931C84.552 15.6375 83.7826 16.3764 82.9284 16.3764H80.5715C80.1784 16.3764 79.8201 16.2153 79.5645 15.9208C79.2715 15.5861 79.1423 15.1097 79.2104 14.6139L80.377 6.05278H44.8034L43.6256 14.6917C43.4965 15.6361 42.727 16.375 41.8742 16.375H39.5173C39.1242 16.375 38.7659 16.2139 38.5104 15.9208C38.2173 15.5861 38.0881 15.1097 38.1562 14.6139L39.3229 6.05278H30.4895Z" fill="#F9FAFB"/>
<path d="M35.5367 52.3167C35.8187 52.3167 36.0104 52.5736 35.9673 52.8903C35.9242 53.2083 35.6617 53.4639 35.3798 53.4639H20.6395C20.3576 53.4639 20.1659 53.2069 20.209 52.8903C20.252 52.5736 20.5145 52.3167 20.7965 52.3167L35.5367 52.3167Z" fill="#98A2B3"/>
<path d="M35.3812 53.7528H20.6395C20.4312 53.7528 20.2409 53.6667 20.1062 53.5111C19.9562 53.3389 19.8895 53.0986 19.9229 52.85C19.9854 52.3889 20.3687 52.0278 20.7965 52.0278H35.5367C35.7451 52.0278 35.9354 52.1139 36.0715 52.2694C36.2215 52.4417 36.2881 52.6819 36.2548 52.9292C36.1909 53.3903 35.8076 53.7528 35.3812 53.7528ZM20.7965 52.6056C20.6756 52.6056 20.5215 52.7389 20.4951 52.9292C20.484 53.0125 20.5006 53.0861 20.5409 53.132C20.5659 53.1611 20.5992 53.175 20.6395 53.175H35.3812C35.502 53.175 35.6562 53.0417 35.6826 52.85C35.6937 52.7681 35.677 52.6944 35.6367 52.6486C35.6117 52.6194 35.5784 52.6056 35.5381 52.6056H20.7965Z" fill="#98A2B3"/>
<path d="M37.9784 43.9708C38.2604 43.9708 38.452 44.2278 38.409 44.5444C38.3659 44.8611 38.1034 45.1181 37.8215 45.1181H15.4576C15.177 45.1181 14.9854 44.8611 15.0284 44.5444C15.0715 44.2264 15.334 43.9708 15.6145 43.9708H37.9784Z" fill="#98A2B3"/>
<path d="M37.8215 45.4069H15.4576C15.2492 45.4069 15.0604 45.3208 14.9242 45.1653C14.7742 44.9931 14.7076 44.7528 14.7409 44.5056C14.8034 44.0431 15.1867 43.6819 15.6131 43.6819H37.977C38.1854 43.6819 38.3756 43.7681 38.5104 43.9236C38.6604 44.0958 38.727 44.3361 38.6937 44.5847C38.6326 45.0458 38.2478 45.4069 37.8215 45.4069ZM15.6131 44.2597C15.4923 44.2597 15.3395 44.3931 15.3131 44.5847C15.302 44.6667 15.3187 44.7403 15.359 44.7861C15.384 44.8153 15.4159 44.8292 15.4562 44.8292H37.8201C37.9409 44.8292 38.0951 44.6958 38.1215 44.5056C38.1326 44.4222 38.1159 44.3486 38.0756 44.3028C38.0506 44.2736 38.0173 44.2597 37.977 44.2597H15.6131Z" fill="#98A2B3"/>
<path d="M36.7576 48.1431C37.0395 48.1431 37.2312 48.4 37.1881 48.7167C37.1451 49.0333 36.8826 49.2903 36.6006 49.2903H14.2367C13.9562 49.2903 13.7645 49.0333 13.8076 48.7167C13.8506 48.3986 14.1131 48.1431 14.3937 48.1431H36.7576Z" fill="#98A2B3"/>
<path d="M36.602 49.5792H14.2367C14.0284 49.5792 13.8395 49.4931 13.7034 49.3375C13.5534 49.1653 13.4867 48.925 13.5201 48.6778C13.5826 48.2153 13.9659 47.8542 14.3923 47.8542H36.7562C36.9645 47.8542 37.1548 47.9403 37.2895 48.0958C37.4395 48.2681 37.5062 48.5083 37.4729 48.7569C37.4117 49.2181 37.0284 49.5792 36.602 49.5792ZM14.3937 48.4319C14.2729 48.4319 14.1201 48.5653 14.0937 48.7569C14.0826 48.8389 14.0992 48.9125 14.1395 48.9583C14.1645 48.9875 14.1965 49.0014 14.2367 49.0014H36.6006C36.7215 49.0014 36.8756 48.8681 36.902 48.6778C36.9131 48.5944 36.8965 48.5208 36.8562 48.475C36.8312 48.4458 36.7979 48.4319 36.7576 48.4319H14.3937Z" fill="#98A2B3"/>
<path d="M99.0395 39.6847C100.181 39.6847 101.106 38.7594 101.106 37.6181C101.106 36.4767 100.181 35.5514 99.0395 35.5514C97.8981 35.5514 96.9729 36.4767 96.9729 37.6181C96.9729 38.7594 97.8981 39.6847 99.0395 39.6847Z" fill="#F9FAFB"/>
<path d="M2.61452 58.6222C3.75591 58.6222 4.68119 57.6969 4.68119 56.5555C4.68119 55.4142 3.75591 54.4889 2.61452 54.4889C1.47313 54.4889 0.547852 55.4142 0.547852 56.5555C0.547852 57.6969 1.47313 58.6222 2.61452 58.6222Z" fill="#F9FAFB"/>
<path d="M3.64924 60.2931C4.05118 60.2931 4.37702 59.9672 4.37702 59.5653C4.37702 59.1633 4.05118 58.8375 3.64924 58.8375C3.2473 58.8375 2.92146 59.1633 2.92146 59.5653C2.92146 59.9672 3.2473 60.2931 3.64924 60.2931Z" fill="#F9FAFB"/>
<path d="M99.7853 4.13333C100.927 4.13333 101.852 3.20806 101.852 2.06667C101.852 0.925279 100.927 0 99.7853 0C98.644 0 97.7187 0.925279 97.7187 2.06667C97.7187 3.20806 98.644 4.13333 99.7853 4.13333Z" fill="#F9FAFB"/>
<path d="M96.6381 2.32361C97.0401 2.32361 97.3659 1.99777 97.3659 1.59583C97.3659 1.19389 97.0401 0.868053 96.6381 0.868053C96.2362 0.868053 95.9104 1.19389 95.9104 1.59583C95.9104 1.99777 96.2362 2.32361 96.6381 2.32361Z" fill="#F9FAFB"/>
<path d="M20.3729 33.975C22.3365 33.975 23.9284 32.3831 23.9284 30.4194C23.9284 28.4558 22.3365 26.8639 20.3729 26.8639C18.4092 26.8639 16.8173 28.4558 16.8173 30.4194C16.8173 32.3831 18.4092 33.975 20.3729 33.975Z" fill="#E4E7EC"/>
<path d="M16.8187 28.6653C17.7537 28.6653 18.5117 27.9073 18.5117 26.9722C18.5117 26.0372 17.7537 25.2792 16.8187 25.2792C15.8836 25.2792 15.1256 26.0372 15.1256 26.9722C15.1256 27.9073 15.8836 28.6653 16.8187 28.6653Z" fill="#F9FAFB"/>
</svg>
